<svg xmlns="http://www.w3.org/2000/svg" width="299" height="115" viewBox="0 0 299 115">
    <g fill="none" fill-rule="evenodd">
        <g fill="#FFF">
            <g>
                <g>
                    <path d="M66.607 33.126c0 .595-.116 1.163-.346 1.706-.232.542-.545 1.02-.945 1.432-.397.414-.859.737-1.386.97-.528.232-1.1.348-1.714.348H53.39V15.418h8.825c.59 0 1.148.116 1.676.348.525.233.995.556 1.406.97.41.414.731.884.963 1.414.23.53.346 1.103.346 1.724v13.252zm1.812-19.51c-.797-.814-1.728-1.453-2.793-1.919-1.067-.464-2.204-.697-3.41-.697H49v31h13.216c1.206 0 2.343-.233 3.41-.697 1.065-.466 1.996-1.105 2.793-1.919.797-.813 1.426-1.756 1.888-2.829.461-1.07.693-2.214.693-3.43v-13.25c0-1.214-.232-2.358-.693-3.43-.462-1.071-1.091-2.016-1.888-2.83zM74 42L78 42 78 11 74 11zM99.506 33.126L86.496 11 82 11 82 42 86.496 42 86.496 19.874 99.506 42 104 42 104 11 99.506 11zM115.626 28.71l3.875-10.465 3.835 10.464h-7.71zm1.76-17.71L106 42h4.772l3.234-8.875h10.973L128.228 42H133l-11.387-31h-4.226zM153.262 21.56c-.232.53-.547 1.002-.945 1.414-.4.414-.86.737-1.386.968-.53.234-1.099.35-1.714.35h-8.823v-8.874h8.823c.59 0 1.149.116 1.674.348.527.233.997.556 1.408.97.41.414.731.884.963 1.414.23.53.346 1.105.346 1.724 0 .595-.116 1.157-.346 1.686m2.155-7.944c-.795-.814-1.726-1.453-2.79-1.917-1.069-.466-2.205-.699-3.41-.699H136v31h4.394V28.71h8.823c1.179 0 2.303-.233 3.37-.7 1.065-.463 2.003-1.096 2.81-1.898.811-.8 1.446-1.736 1.908-2.808.463-1.071.695-2.214.695-3.43 0-1.213-.232-2.357-.695-3.43-.462-1.07-1.09-2.015-1.888-2.828M165.683 16.716c.398-.4.867-.717 1.407-.95.539-.232 1.118-.348 1.734-.348h4.392c.59 0 1.149.116 1.674.348.528.233.995.556 1.407.97.413.414.733.884.965 1.414.23.53.345 1.103.345 1.724H182c0-1.213-.232-2.357-.693-3.43-.462-1.07-1.093-2.015-1.888-2.828-.797-.814-1.728-1.453-2.793-1.919-1.068-.464-2.203-.697-3.41-.697h-4.392c-1.209 0-2.35.233-3.43.697-1.08.466-2.016 1.105-2.813 1.919-.795.813-1.426 1.758-1.888 2.829-.461 1.072-.693 2.216-.693 3.43 0 1.215.232 2.358.693 3.429.462 1.072 1.099 2.009 1.908 2.808.807.802 1.746 1.435 2.813 1.899 1.064.466 2.201.697 3.41.697h4.392c.59 0 1.149.116 1.674.35.528.233.995.556 1.407.968.413.414.733.886.965 1.414.23.53.345 1.093.345 1.686 0 .595-.116 1.163-.345 1.706-.232.542-.548 1.02-.945 1.432-.398.414-.86.737-1.387.97-.527.232-1.098.348-1.714.348h-4.392c-.616 0-1.195-.116-1.734-.348-.54-.233-1.01-.55-1.407-.95-.397-.4-.713-.872-.945-1.414-.231-.543-.345-1.123-.345-1.744H160c0 1.215.232 2.365.693 3.45.462 1.084 1.093 2.027 1.888 2.826.797.802 1.734 1.435 2.813 1.9 1.08.465 2.221.698 3.43.698h4.392c1.207 0 2.342-.233 3.41-.697 1.065-.466 1.996-1.105 2.793-1.919.795-.813 1.426-1.756 1.888-2.829.461-1.07.693-2.214.693-3.43 0-1.186-.232-2.318-.693-3.39-.462-1.071-1.099-2.013-1.908-2.827-.809-.814-1.748-1.455-2.813-1.919-1.064-.466-2.191-.697-3.37-.697h-4.392c-.616 0-1.195-.116-1.734-.35-.54-.233-1.01-.548-1.407-.948-.397-.4-.713-.866-.945-1.396-.231-.529-.345-1.103-.345-1.724 0-.62.114-1.201.345-1.744.232-.542.548-1.014.945-1.414M186 42L190 42 190 11 186 11zM213.397 26.907c-.807-.814-1.746-1.453-2.81-1.919-1.067-.464-2.192-.697-3.373-.697h-4.392c-.618 0-1.195-.117-1.734-.348-.54-.233-1.007-.55-1.405-.95-.4-.4-.715-.866-.945-1.394-.231-.53-.347-1.106-.347-1.724 0-.621.116-1.202.347-1.744.23-.543.546-1.015.945-1.417.398-.4.865-.715 1.405-.948.539-.233 1.116-.35 1.734-.35h4.392c.592 0 1.149.117 1.676.35.528.233.995.556 1.407.968.41.414.73.886.965 1.415.23.53.345 1.105.345 1.726H216c0-1.216-.232-2.36-.695-3.432-.462-1.071-1.093-2.013-1.888-2.827-.797-.814-1.726-1.455-2.793-1.919-1.066-.466-2.203-.697-3.41-.697h-4.392c-1.207 0-2.352.231-3.428.697-1.081.464-2.018 1.105-2.813 1.919-.795.814-1.426 1.756-1.888 2.827-.463 1.073-.693 2.216-.693 3.432 0 1.213.23 2.356.693 3.427.462 1.073 1.099 2.01 1.908 2.811.807.8 1.746 1.433 2.81 1.899 1.065.464 2.204.697 3.41.697h4.393c.592 0 1.149.117 1.676.35.528.23.995.554 1.407.968.41.414.73.884.965 1.415.23.528.345 1.09.345 1.683 0 .597-.116 1.164-.345 1.706-.234.543-.548 1.02-.945 1.435-.4.414-.863.735-1.387.968-.529.233-1.098.35-1.716.35h-4.392c-.618 0-1.195-.117-1.734-.35-.54-.233-1.007-.548-1.405-.95-.4-.398-.715-.87-.945-1.413-.231-.542-.347-1.125-.347-1.746H194c0 1.216.23 2.365.693 3.45.462 1.085 1.093 2.03 1.888 2.83.795.8 1.732 1.434 2.813 1.898 1.076.466 2.221.697 3.428.697h4.392c1.207 0 2.344-.231 3.41-.697 1.067-.464 1.996-1.105 2.793-1.919.795-.812 1.426-1.756 1.888-2.827.463-1.073.695-2.216.695-3.432 0-1.187-.232-2.316-.695-3.39-.462-1.07-1.099-2.014-1.908-2.828" transform="translate(-1837.000000, -442.000000) translate(1837.000000, 442.079366) translate(0.000000, 0.920634) translate(40.000000, 26.000000)"/>
                    <g>
                        <path d="M26 33.964V29c-1.004 4.353-3.185 9.09-6 12l2.393-1.277C24.348 38.679 26 36.043 26 33.964M25 4.789c-.524-1.874-1.534-3.277-2.918-4.061-.636-.362-1.347-.59-2.114-.683-1.852-.208-4.02.296-6.334 1.616L0 9.422 8.097 14l13.916-7.92c1-.57 2.004-1 2.987-1.291M28.016 4.688c.335 0 .663.02.984.055L24 2c.659.82 1.178 1.82 1.518 3 .857-.205 1.697-.312 2.498-.312M9 38l5.167-2.92C16.28 33.885 18 30.98 18 28.598V20.05L9 15v23zM18 13.511c0-1.122-.428-1.91-1.122-2.277-.063-.034-.428-.234-.988-.234-.78 0-1.51.37-1.723.484L9 14.236 18 19v-5.489zM22.503 16.453c.975-.588 1.858-.644 2.497-.258L18 12c.181.457.282.993.282 1.603V19l4.221-2.547z" transform="translate(-1837.000000, -442.000000) translate(1837.000000, 442.079366) translate(0.000000, 0.920634) translate(40.000000, 26.000000)"/>
                        <path d="M31.385 5.819c-1.469-.851-3.308-1.053-5.364-.54.199.902.31 1.887.31 2.972v25.42c0 2.351-1.653 5.225-3.69 6.403l-4.975 2.885-3.69 2.14L9 47.983V58l13.642-7.91C29.455 46.14 35 36.52 35 28.647v-14.84c0-3.93-1.382-6.696-3.615-7.987" transform="translate(-1837.000000, -442.000000) translate(1837.000000, 442.079366) translate(0.000000, 0.920634) translate(40.000000, 26.000000)"/>
                        <path d="M25.706 5l-.124.04h-.002c-.874.285-1.785.7-2.717 1.257L16 10.38c.379.024.753.131 1.064.316l8.7 5.14c.08.05.16.105.236.165V7.904c0-1.036-.102-2.008-.294-2.904" transform="translate(-1837.000000, -442.000000) translate(1837.000000, 442.079366) translate(0.000000, 0.920634) translate(40.000000, 26.000000)"/>
                    </g>
                </g>
            </g>
        </g>
    </g>
</svg>
