<svg xmlns="http://www.w3.org/2000/svg" width="632" height="242" viewBox="0 0 632 242">
    <g fill="none" fill-rule="evenodd">
        <g>
            <g>
                <path fill="#002F6C" d="M132.385 76.366c1.316 0 2.54-.245 3.666-.735 1.124-.491 2.111-1.173 2.964-2.048.85-.87 1.525-1.881 2.018-3.028.493-1.144.74-2.346.74-3.6V38.966c0-1.308-.247-2.523-.74-3.64-.493-1.12-1.183-2.115-2.06-2.988-.88-.872-1.88-1.555-3.005-2.048-1.126-.49-2.32-.735-3.583-.735h-18.86v46.81h18.86zm0-56.14c2.579 0 5.01.49 7.29 1.475 2.275.98 4.267 2.33 5.968 4.049 1.703 1.72 3.047 3.711 4.035 5.974.99 2.266 1.484 4.68 1.484 7.243v27.987c0 2.566-.493 4.98-1.484 7.244-.988 2.264-2.332 4.254-4.035 5.974-1.701 1.718-3.693 3.069-5.969 4.051-2.28.982-4.71 1.473-7.29 1.473h-28.247v-65.47h28.248zM157.751 85.695L167.14 85.695 167.14 20.226 157.751 20.226zM211.034 66.955L211.034 20.226 220.423 20.226 220.423 85.696 211.034 85.696 183.855 38.966 183.855 85.696 174.466 85.696 174.466 20.226 183.855 20.226zM245.706 57.625h16.225l-8.073-22.095-8.152 22.095zm19.683 9.33h-23.14l-6.754 18.741h-10.05l23.967-65.47h8.895l23.965 65.47h-10.048l-6.835-18.741zM296.603 29.555v18.742h18.86c1.317 0 2.54-.246 3.665-.737 1.124-.491 2.112-1.173 2.966-2.047.849-.872 1.523-1.867 2.017-2.985.494-1.12.741-2.305.741-3.561 0-1.308-.247-2.523-.741-3.64-.494-1.12-1.183-2.115-2.06-2.988-.88-.873-1.882-1.555-3.005-2.048-1.126-.49-2.321-.736-3.583-.736h-18.86zm-9.39 56.14v-65.47h28.25c2.58 0 5.01.492 7.289 1.476 2.278.98 4.267 2.33 5.97 4.049 1.702 1.72 3.047 3.712 4.035 5.973.989 2.267 1.483 4.68 1.483 7.244s-.494 4.979-1.483 7.242c-.988 2.264-2.347 4.243-4.075 5.933-1.73 1.69-3.736 3.028-6.013 4.012-2.278.981-4.681 1.472-7.206 1.472h-18.86v28.07h-9.39zM356.31 85.696c-2.582 0-5.026-.491-7.331-1.473-2.304-.983-4.31-2.32-6.01-4.012-1.702-1.688-3.048-3.681-4.038-5.973-.988-2.29-1.482-4.718-1.482-7.284h9.39c0 1.31.247 2.539.74 3.683.495 1.147 1.166 2.142 2.017 2.988.852.846 1.853 1.515 3.008 2.006 1.152.49 2.386.735 3.706.735h9.389c1.316 0 2.54-.245 3.663-.735 1.127-.491 2.114-1.173 2.965-2.048.851-.871 1.524-1.88 2.018-3.028.495-1.144.743-2.346.743-3.6s-.248-2.442-.743-3.56c-.494-1.117-1.18-2.114-2.058-2.987-.88-.87-1.88-1.556-3.007-2.046-1.127-.491-2.318-.737-3.581-.737h-9.39c-2.581 0-5.01-.49-7.288-1.471-2.28-.984-4.282-2.321-6.013-4.012-1.727-1.69-3.087-3.67-4.077-5.933-.988-2.263-1.482-4.678-1.482-7.242 0-2.563.494-4.977 1.482-7.244.99-2.26 2.336-4.254 4.037-5.973 1.7-1.719 3.707-3.07 6.01-4.05 2.306-.983 4.75-1.474 7.332-1.474h9.389c2.579 0 5.008.49 7.29 1.475 2.275.98 4.267 2.33 5.968 4.049 1.7 1.72 3.047 3.712 4.035 5.973.99 2.267 1.485 4.68 1.485 7.244h-9.39c0-1.308-.247-2.523-.742-3.64-.494-1.12-1.18-2.115-2.058-2.988-.88-.873-1.88-1.555-3.007-2.048-1.127-.49-2.318-.736-3.581-.736h-9.39c-1.319 0-2.553.246-3.705.736-1.155.493-2.156 1.162-3.008 2.008-.851.845-1.522 1.841-2.016 2.985-.494 1.146-.742 2.375-.742 3.683 0 1.31.248 2.525.742 3.642.494 1.12 1.165 2.1 2.016 2.947.852.845 1.853 1.513 3.008 2.004 1.152.49 2.386.737 3.706.737h9.389c2.525 0 4.926.49 7.207 1.473 2.275.982 4.28 2.332 6.009 4.05 1.73 1.719 3.09 3.712 4.077 5.974.99 2.267 1.485 4.652 1.485 7.16 0 2.566-.494 4.98-1.485 7.244-.988 2.264-2.334 4.255-4.035 5.974-1.701 1.718-3.693 3.068-5.969 4.051-2.28.982-4.71 1.473-7.29 1.473h-9.388zM390.733 85.695L400.122 85.695 400.122 20.226 390.733 20.226zM425.406 85.696c-2.583 0-5.026-.491-7.331-1.473-2.305-.983-4.31-2.32-6.01-4.012-1.702-1.688-3.048-3.681-4.038-5.973-.988-2.29-1.482-4.718-1.482-7.284h9.389c0 1.31.248 2.539.742 3.683.493 1.147 1.166 2.142 2.016 2.988.852.846 1.853 1.515 3.007 2.006 1.153.49 2.387.735 3.707.735h9.388c1.317 0 2.54-.245 3.664-.735 1.127-.491 2.114-1.173 2.964-2.048.852-.871 1.525-1.88 2.019-3.028.495-1.144.742-2.346.742-3.6s-.247-2.442-.742-3.56c-.494-1.117-1.18-2.114-2.058-2.987-.88-.87-1.881-1.556-3.008-2.046-1.126-.491-2.318-.737-3.58-.737h-9.39c-2.582 0-5.01-.49-7.288-1.471-2.28-.984-4.282-2.321-6.013-4.012-1.728-1.69-3.087-3.67-4.077-5.933-.988-2.263-1.482-4.678-1.482-7.242 0-2.563.494-4.977 1.482-7.244.99-2.26 2.336-4.254 4.037-5.973 1.7-1.719 3.706-3.07 6.01-4.05 2.306-.983 4.75-1.474 7.332-1.474h9.388c2.58 0 5.01.49 7.29 1.475 2.275.98 4.267 2.33 5.97 4.049 1.7 1.72 3.046 3.712 4.034 5.973.99 2.267 1.484 4.68 1.484 7.244h-9.389c0-1.308-.247-2.523-.742-3.64-.494-1.12-1.18-2.115-2.058-2.988-.88-.873-1.881-1.555-3.008-2.048-1.126-.49-2.318-.736-3.58-.736h-9.39c-1.319 0-2.553.246-3.706.736-1.154.493-2.155 1.162-3.007 2.008-.85.845-1.523 1.841-2.016 2.985-.494 1.146-.742 2.375-.742 3.683 0 1.31.248 2.525.742 3.642.493 1.12 1.166 2.1 2.016 2.947.852.845 1.853 1.513 3.007 2.004 1.153.49 2.387.737 3.707.737h9.388c2.526 0 4.927.49 7.208 1.473 2.275.982 4.28 2.332 6.009 4.05 1.73 1.719 3.09 3.712 4.077 5.974.99 2.267 1.484 4.652 1.484 7.16 0 2.566-.494 4.98-1.484 7.244-.988 2.264-2.335 4.255-4.035 5.974-1.702 1.718-3.694 3.068-5.969 4.051-2.28.982-4.71 1.473-7.29 1.473h-9.388z" transform="translate(15.000000, -409.000000) translate(-15.000000, 410.000000) translate(76.093645, 67.649123)"/>
                <g>
                    <path fill="#6DBAC2" d="M27.808 70.758c4.147-2.38 7.52-8.174 7.522-12.917V39.507L17.665 29.439v47.139l10.143-5.82z" transform="translate(15.000000, -409.000000) translate(-15.000000, 410.000000) translate(76.093645, 67.649123) translate(1.138611, 0.546306)"/>
                    <path fill="#286E7F" d="M35.33 27.907c0-.495-.046-.95-.116-1.38-.028-.177-.062-.348-.102-.512-.154-.644-.384-1.212-.692-1.684-.067-.102-.146-.193-.22-.287-.052-.068-.1-.142-.157-.205-.06-.068-.129-.123-.194-.186-.08-.077-.155-.16-.239-.228-.058-.047-.124-.082-.184-.126-.1-.071-.196-.146-.302-.206-.118-.069-.246-.12-.372-.174-.055-.023-.106-.055-.163-.075-.169-.063-.345-.11-.527-.15-.018-.003-.034-.01-.052-.014-.147-.029-.303-.043-.458-.056-.055-.004-.106-.017-.161-.02-.168-.008-.343 0-.517.012-.048.002-.094-.002-.142.002-.334.03-.685.107-1.043.205-.183.05-.366.108-.554.178-.432.159-.874.358-1.328.62l-10.142 5.817 17.665 10.07v-11.6z" transform="translate(15.000000, -409.000000) translate(-15.000000, 410.000000) translate(76.093645, 67.649123) translate(1.138611, 0.546306)"/>
                    <path fill="#002F6C" d="M70.529 24.977c-.018-.196-.047-.383-.069-.574-.029-.259-.055-.521-.09-.773-.03-.197-.068-.384-.1-.575-.04-.24-.077-.481-.122-.714-.04-.2-.09-.388-.134-.582-.05-.216-.093-.438-.148-.648-.05-.189-.107-.37-.161-.555-.06-.205-.114-.416-.179-.615-.055-.174-.12-.337-.18-.506-.072-.202-.14-.407-.216-.604-.063-.162-.135-.315-.202-.472-.083-.193-.161-.39-.248-.577-.071-.15-.15-.29-.224-.436-.092-.183-.182-.372-.28-.55-.082-.143-.17-.278-.254-.419-.1-.168-.197-.34-.303-.502-.093-.143-.195-.276-.293-.414-.104-.147-.205-.3-.313-.443-.105-.136-.216-.262-.325-.393-.11-.134-.216-.272-.33-.4-.107-.12-.223-.23-.334-.345-.123-.129-.242-.26-.369-.382-.116-.11-.24-.212-.36-.317-.127-.115-.254-.234-.386-.342-.123-.1-.254-.19-.382-.285-.136-.103-.27-.21-.41-.307-.13-.09-.268-.168-.403-.252-.143-.09-.283-.185-.43-.27-.148-.083-.302-.157-.453-.235-.14-.072-.278-.15-.423-.217-.152-.073-.31-.131-.466-.197-.15-.062-.296-.13-.448-.186-.166-.061-.339-.112-.508-.167-.149-.048-.293-.102-.443-.145-.177-.049-.36-.087-.54-.13-.15-.035-.296-.077-.448-.107-.18-.036-.364-.06-.546-.088-.16-.026-.316-.057-.477-.077-.183-.023-.372-.032-.559-.047-.165-.014-.329-.035-.496-.043-.196-.01-.395-.007-.593-.008-.164-.001-.326-.01-.494-.007-.202.004-.41.022-.616.034-.167.01-.33.013-.5.028-.206.019-.417.05-.626.076-.173.022-.344.037-.518.063-.205.032-.414.077-.62.115-.184.036-.365.063-.551.103-.213.046-.43.106-.647.16-.07.017-.139.034-.209.053.25.9.454 1.85.6 2.855.193 1.32.292 2.726.292 4.215v50.136c0 4.742-3.375 10.538-7.522 12.917L35.33 86.645 17.665 96.78v20.202l27.808-15.954C59.36 93.061 70.66 73.658 70.66 57.774V27.84c0-.496-.011-.982-.033-1.46-.007-.143-.021-.28-.03-.42-.02-.331-.038-.662-.068-.983" transform="translate(15.000000, -409.000000) translate(-15.000000, 410.000000) translate(76.093645, 67.649123) translate(1.138611, 0.546306)"/>
                    <path fill="#28878E" d="M46.999 2.588c.39.302.767.627 1.125.98.396.39.772.81 1.125 1.262.048.061.097.121.143.183.402.532.775 1.1 1.115 1.71.177.317.345.646.505.985.433.92.795 1.924 1.09 2.994l.21-.052c.217-.055.434-.115.647-.16.185-.04.366-.068.55-.102.207-.04.416-.084.621-.115.175-.027.345-.043.519-.064.208-.026.418-.058.624-.076.17-.015.333-.017.501-.028.205-.011.413-.029.616-.033.167-.004.33.004.494.005.198.003.398-.001.592.009.169.008.333.028.498.042.185.015.374.026.557.048.162.02.32.052.477.076.183.03.368.052.546.09.153.03.299.07.449.106.18.042.363.08.54.131.15.042.295.096.443.144.17.056.342.105.508.166.153.058.299.125.447.188.157.064.315.124.468.195.143.067.28.145.422.217.147.077.297.148.442.23L45.609 1.651c.1.056.191.122.288.18.38.232.748.483 1.102.757" transform="translate(15.000000, -409.000000) translate(-15.000000, 410.000000) translate(76.093645, 67.649123) translate(1.138611, 0.546306)"/>
                    <path fill="#8FBE43" d="M51.764 10.786c-.24.067-.485.148-.729.225-.162.051-.324.095-.488.15-.242.083-.487.18-.73.27-.171.064-.34.12-.51.189-.26.102-.524.221-.785.335-.158.07-.316.13-.476.203-.294.134-.592.285-.889.432-.13.066-.258.123-.389.19-.43.222-.861.457-1.296.706L27.808 23.62c.453-.26.895-.46 1.327-.619.188-.07.372-.127.554-.178.358-.098.708-.175 1.044-.205.048-.004.092 0 .14-.002.175-.011.35-.02.518-.011.055.002.106.015.16.019.156.014.312.027.459.056.019.004.036.01.052.015.182.038.358.086.528.149.057.02.108.052.163.075.125.053.253.105.371.174l17.673 10.073c.09.05.17.116.256.175.074.052.154.097.224.154.083.067.156.148.233.222.066.064.137.123.2.193.074.082.137.177.204.266.058.077.12.145.174.227.067.104.124.221.185.334.043.079.091.151.13.235.057.121.103.255.152.387.033.087.072.166.1.258.049.146.083.305.12.46.021.087.049.166.067.256.035.18.059.373.082.566.008.075.025.144.032.22.025.275.038.56.038.856v9.731-29.934c0-1.488-.099-2.895-.29-4.214-.146-1.005-.352-1.953-.601-2.855-.114.028-.224.051-.339.083" transform="translate(15.000000, -409.000000) translate(-15.000000, 410.000000) translate(76.093645, 67.649123) translate(1.138611, 0.546306)"/>
                    <path fill="#6DBAC2" d="M27.808 23.62l17.665-10.135c.433-.249.865-.484 1.294-.705.131-.067.26-.125.39-.189.297-.149.595-.298.89-.433.16-.073.316-.134.476-.204.261-.113.524-.23.782-.335.172-.068.34-.124.51-.187.244-.092.49-.189.731-.27.165-.055.326-.1.49-.151.243-.077.487-.157.728-.226.114-.031.225-.053.338-.083-.296-1.07-.657-2.074-1.09-2.994-.159-.339-.328-.667-.504-.985-.341-.61-.714-1.179-1.116-1.71l-.143-.184c-.352-.45-.73-.87-1.125-1.261-.358-.353-.734-.678-1.126-.98-.353-.274-.72-.525-1.102-.756-.096-.06-.188-.125-.287-.18-.285-.163-.576-.314-.875-.453-.298-.14-.604-.267-.915-.382-1.243-.46-2.589-.73-4.015-.8-.358-.017-.72-.021-1.087-.013-.733.015-1.487.082-2.259.201-.77.119-1.559.29-2.363.514-.804.224-1.624.502-2.457.834-1.25.497-2.529 1.118-3.83 1.864L0 19.371 17.665 29.44l10.143-5.82z" transform="translate(15.000000, -409.000000) translate(-15.000000, 410.000000) translate(76.093645, 67.649123) translate(1.138611, 0.546306)"/>
                    <path fill="#28878E" d="M35.33 86.645l10.143-5.82c4.146-2.378 7.52-8.173 7.52-12.916V47.707c0 12.886-7.52 33.118-17.663 38.938" transform="translate(15.000000, -409.000000) translate(-15.000000, 410.000000) translate(76.093645, 67.649123) translate(1.138611, 0.546306)"/>
                    <path fill="#74A980" d="M33.61 23.425c.085.068.16.152.24.228.064.063.133.118.193.186.057.063.105.137.158.205.073.094.152.185.22.287.307.47.537 1.04.691 1.684.04.164.074.335.103.51.07.432.114.887.114 1.382v11.6l10.143-5.819c.26-.149.516-.281.77-.396.064-.03.124-.05.188-.077.188-.08.375-.16.558-.221.1-.034.196-.054.293-.082.143-.041.29-.09.428-.12.096-.02.189-.027.283-.043.137-.022.276-.05.409-.063.1-.008.197-.003.294-.005.121-.004.245-.014.364-.009.101.006.198.025.297.037.107.013.218.02.323.04.1.02.191.055.288.08.096.028.198.05.291.084.092.034.176.082.263.123.09.042.186.078.272.127l.004.003-17.673-10.073c.106.06.202.135.301.206.061.043.127.078.185.126" transform="translate(15.000000, -409.000000) translate(-15.000000, 410.000000) translate(76.093645, 67.649123) translate(1.138611, 0.546306)"/>
                </g>
            </g>
        </g>
    </g>
</svg>
